<mxfile host="Electron" modified="2025-08-06T08:43:05.896Z" agent="Mozilla/5.0 (X11; Linux x86_64) AppleWebKit/537.36 (KHTML, like Gecko) draw.io/21.2.8 Chrome/112.0.5615.165 Electron/24.2.0 Safari/537.36" etag="xsexCpW0ehQoRTQuTSve" version="21.2.8" type="device">
  <diagram name="Page-1" id="g90O8nLKNXcQXiUozZrk">
    <mxGraphModel dx="2495" dy="1136" grid="1" gridSize="10" guides="1" tooltips="1" connect="1" arrows="1" fold="1" page="1" pageScale="1" pageWidth="827" pageHeight="1169" math="0" shadow="0">
      <root>
        <mxCell id="0" />
        <mxCell id="1" parent="0" />
        <mxCell id="-iZQ1-diTXxbkEYcx7sT-19" value="HierarchyBuilder" style="rounded=0;whiteSpace=wrap;verticalAlign=top;" vertex="1" parent="1">
          <mxGeometry x="-75" y="90" width="190" height="310" as="geometry" />
        </mxCell>
        <mxCell id="-iZQ1-diTXxbkEYcx7sT-21" value="HierarchyBuilder" style="rounded=0;whiteSpace=wrap;verticalAlign=top;" vertex="1" parent="1">
          <mxGeometry x="-280" y="90" width="190" height="310" as="geometry" />
        </mxCell>
        <mxCell id="-iZQ1-diTXxbkEYcx7sT-1" value="PendingArea[] areaForLayer" style="rounded=0;whiteSpace=wrap;verticalAlign=top;" vertex="1" parent="1">
          <mxGeometry x="240" y="90" width="230" height="440" as="geometry" />
        </mxCell>
        <mxCell id="-iZQ1-diTXxbkEYcx7sT-2" value="PendingArea[0]&amp;nbsp;" style="rounded=1;whiteSpace=wrap;html=1;" vertex="1" parent="1">
          <mxGeometry x="280" y="140" width="150" height="40" as="geometry" />
        </mxCell>
        <mxCell id="-iZQ1-diTXxbkEYcx7sT-9" style="edgeStyle=orthogonalEdgeStyle;rounded=0;orthogonalLoop=1;jettySize=auto;html=1;entryX=0;entryY=0.5;entryDx=0;entryDy=0;" edge="1" parent="1" source="-iZQ1-diTXxbkEYcx7sT-4" target="-iZQ1-diTXxbkEYcx7sT-27">
          <mxGeometry relative="1" as="geometry" />
        </mxCell>
        <mxCell id="-iZQ1-diTXxbkEYcx7sT-4" value="PendingArea[1]&amp;nbsp;" style="rounded=1;whiteSpace=wrap;html=1;" vertex="1" parent="1">
          <mxGeometry x="280" y="210" width="150" height="40" as="geometry" />
        </mxCell>
        <mxCell id="-iZQ1-diTXxbkEYcx7sT-5" value="PendingArea[2]&amp;nbsp;" style="rounded=1;whiteSpace=wrap;html=1;" vertex="1" parent="1">
          <mxGeometry x="280" y="290" width="150" height="40" as="geometry" />
        </mxCell>
        <mxCell id="-iZQ1-diTXxbkEYcx7sT-6" value="PendingArea[...]&amp;nbsp;" style="rounded=1;whiteSpace=wrap;html=1;" vertex="1" parent="1">
          <mxGeometry x="280" y="370" width="150" height="40" as="geometry" />
        </mxCell>
        <mxCell id="-iZQ1-diTXxbkEYcx7sT-7" value="PendingArea[36]&amp;nbsp;" style="rounded=1;whiteSpace=wrap;html=1;" vertex="1" parent="1">
          <mxGeometry x="280" y="460" width="150" height="40" as="geometry" />
        </mxCell>
        <mxCell id="-iZQ1-diTXxbkEYcx7sT-12" style="edgeStyle=orthogonalEdgeStyle;rounded=0;orthogonalLoop=1;jettySize=auto;html=1;" edge="1" parent="1" source="-iZQ1-diTXxbkEYcx7sT-8" target="-iZQ1-diTXxbkEYcx7sT-11">
          <mxGeometry relative="1" as="geometry" />
        </mxCell>
        <mxCell id="-iZQ1-diTXxbkEYcx7sT-13" value="mChildren" style="edgeLabel;html=1;align=center;verticalAlign=middle;resizable=0;points=[];" vertex="1" connectable="0" parent="-iZQ1-diTXxbkEYcx7sT-12">
          <mxGeometry x="-0.1606" y="-2" relative="1" as="geometry">
            <mxPoint as="offset" />
          </mxGeometry>
        </mxCell>
        <mxCell id="-iZQ1-diTXxbkEYcx7sT-8" value="PendingArea for feature N, layer 1" style="rounded=1;whiteSpace=wrap;" vertex="1" parent="1">
          <mxGeometry x="610" y="140" width="150" height="40" as="geometry" />
        </mxCell>
        <mxCell id="-iZQ1-diTXxbkEYcx7sT-29" style="edgeStyle=orthogonalEdgeStyle;rounded=0;orthogonalLoop=1;jettySize=auto;html=1;entryX=1;entryY=0.25;entryDx=0;entryDy=0;exitX=0.75;exitY=0;exitDx=0;exitDy=0;" edge="1" parent="1" source="-iZQ1-diTXxbkEYcx7sT-11" target="-iZQ1-diTXxbkEYcx7sT-8">
          <mxGeometry relative="1" as="geometry" />
        </mxCell>
        <mxCell id="-iZQ1-diTXxbkEYcx7sT-11" value="PendingArea for feature M layer 1" style="rounded=1;whiteSpace=wrap;" vertex="1" parent="1">
          <mxGeometry x="670" y="230" width="150" height="40" as="geometry" />
        </mxCell>
        <mxCell id="-iZQ1-diTXxbkEYcx7sT-25" style="edgeStyle=orthogonalEdgeStyle;rounded=0;orthogonalLoop=1;jettySize=auto;html=1;entryX=0;entryY=0.5;entryDx=0;entryDy=0;" edge="1" parent="1" source="-iZQ1-diTXxbkEYcx7sT-14" target="-iZQ1-diTXxbkEYcx7sT-4">
          <mxGeometry relative="1" as="geometry" />
        </mxCell>
        <mxCell id="-iZQ1-diTXxbkEYcx7sT-14" value="Feature A&lt;br&gt;包含Layer ID" style="rounded=1;whiteSpace=wrap;html=1;" vertex="1" parent="1">
          <mxGeometry x="-40" y="160" width="120" height="40" as="geometry" />
        </mxCell>
        <mxCell id="-iZQ1-diTXxbkEYcx7sT-15" value="Feature B" style="rounded=1;whiteSpace=wrap;html=1;" vertex="1" parent="1">
          <mxGeometry x="-40" y="240" width="120" height="40" as="geometry" />
        </mxCell>
        <mxCell id="-iZQ1-diTXxbkEYcx7sT-23" style="edgeStyle=orthogonalEdgeStyle;rounded=0;orthogonalLoop=1;jettySize=auto;html=1;" edge="1" parent="1" source="-iZQ1-diTXxbkEYcx7sT-16" target="-iZQ1-diTXxbkEYcx7sT-22">
          <mxGeometry relative="1" as="geometry" />
        </mxCell>
        <mxCell id="-iZQ1-diTXxbkEYcx7sT-16" value="Window Type" style="rounded=1;whiteSpace=wrap;html=1;" vertex="1" parent="1">
          <mxGeometry x="-413" y="140" width="120" height="40" as="geometry" />
        </mxCell>
        <mxCell id="-iZQ1-diTXxbkEYcx7sT-17" value="Window Type" style="rounded=1;whiteSpace=wrap;html=1;" vertex="1" parent="1">
          <mxGeometry x="-413" y="210" width="120" height="40" as="geometry" />
        </mxCell>
        <mxCell id="-iZQ1-diTXxbkEYcx7sT-18" value="Window Type" style="rounded=1;whiteSpace=wrap;html=1;" vertex="1" parent="1">
          <mxGeometry x="-413" y="280" width="120" height="40" as="geometry" />
        </mxCell>
        <mxCell id="-iZQ1-diTXxbkEYcx7sT-24" style="edgeStyle=orthogonalEdgeStyle;rounded=0;orthogonalLoop=1;jettySize=auto;html=1;entryX=0;entryY=0.5;entryDx=0;entryDy=0;" edge="1" parent="1" source="-iZQ1-diTXxbkEYcx7sT-22" target="-iZQ1-diTXxbkEYcx7sT-14">
          <mxGeometry relative="1" as="geometry" />
        </mxCell>
        <mxCell id="-iZQ1-diTXxbkEYcx7sT-22" value="Layer ID" style="rounded=1;whiteSpace=wrap;html=1;" vertex="1" parent="1">
          <mxGeometry x="-250" y="210" width="120" height="40" as="geometry" />
        </mxCell>
        <mxCell id="-iZQ1-diTXxbkEYcx7sT-26" style="edgeStyle=orthogonalEdgeStyle;rounded=0;orthogonalLoop=1;jettySize=auto;html=1;exitX=1;exitY=0.5;exitDx=0;exitDy=0;entryX=0;entryY=0.5;entryDx=0;entryDy=0;" edge="1" parent="1" source="-iZQ1-diTXxbkEYcx7sT-15" target="-iZQ1-diTXxbkEYcx7sT-5">
          <mxGeometry relative="1" as="geometry" />
        </mxCell>
        <mxCell id="-iZQ1-diTXxbkEYcx7sT-28" style="edgeStyle=orthogonalEdgeStyle;rounded=0;orthogonalLoop=1;jettySize=auto;html=1;entryX=0.5;entryY=1;entryDx=0;entryDy=0;" edge="1" parent="1" source="-iZQ1-diTXxbkEYcx7sT-27" target="-iZQ1-diTXxbkEYcx7sT-11">
          <mxGeometry relative="1" as="geometry" />
        </mxCell>
        <mxCell id="-iZQ1-diTXxbkEYcx7sT-27" value="PendingArea for leaf" style="rounded=1;whiteSpace=wrap;" vertex="1" parent="1">
          <mxGeometry x="700" y="310" width="150" height="40" as="geometry" />
        </mxCell>
      </root>
    </mxGraphModel>
  </diagram>
</mxfile>
